<mxfile host="app.diagrams.net" modified="2022-06-25T15:51:20.646Z" agent="5.0 (Macintosh; Intel Mac OS X 10_15_7) AppleWebKit/537.36 (KHTML, like Gecko) Chrome/102.0.5005.124 Safari/537.36 Edg/102.0.1245.44" etag="S-MpcUXI5Z-MQBvD39xD" version="20.0.3" type="github">
  <diagram id="WRha5JCBrEZTeJ59mQJU" name="Page-1">
    <mxGraphModel dx="1697" dy="1161" grid="1" gridSize="10" guides="1" tooltips="1" connect="1" arrows="1" fold="1" page="1" pageScale="1" pageWidth="827" pageHeight="1169" math="0" shadow="0">
      <root>
        <mxCell id="0" />
        <mxCell id="1" parent="0" />
      </root>
    </mxGraphModel>
  </diagram>
</mxfile>
